<svg width="119" height="126" viewBox="0 0 119 126" fill="none" xmlns="http://www.w3.org/2000/svg">
<path d="M12.7211 0.504669C12.1714 -0.115051 11.2233 -0.171768 10.6036 0.377998L0.504669 9.33688C-0.115051 9.88664 -0.171768 10.8347 0.377998 11.4544C0.927757 12.0741 1.87581 12.1308 2.49553 11.5811L11.4724 3.61763L19.4358 12.5945C19.9856 13.2142 20.9336 13.2709 21.5533 12.7211C22.1731 12.1714 22.2298 11.2233 21.68 10.6036L12.7211 0.504669ZM118.056 122.871L117.873 121.383C116.864 121.507 115.865 121.62 114.874 121.724L115.03 123.216L115.186 124.708C116.195 124.602 117.213 124.487 118.239 124.36L118.056 122.871ZM109.107 123.724L109.008 122.227C106.991 122.361 105.014 122.451 103.076 122.498L103.113 123.997L103.149 125.497C105.13 125.449 107.149 125.357 109.206 125.22L109.107 123.724ZM97.1129 124.006L97.1458 122.507C95.1347 122.463 93.1689 122.37 91.2474 122.23L91.1388 123.727L91.0301 125.223C93.0033 125.366 95.0197 125.461 97.08 125.506L97.1129 124.006ZM85.1966 123.132L85.388 121.644C83.4017 121.388 81.4666 121.08 79.5814 120.72L79.3003 122.193L79.0191 123.667C80.9652 124.038 82.9603 124.356 85.0053 124.619L85.1966 123.132ZM73.4721 120.883L73.8498 119.432C71.9176 118.929 70.0426 118.369 68.2232 117.754L67.743 119.175L67.2628 120.596C69.1509 121.234 71.0944 121.815 73.0943 122.335L73.4721 120.883ZM62.1518 117.047L62.739 115.667C60.9112 114.889 59.145 114.052 57.4387 113.158L56.7426 114.487L56.0464 115.815C57.8245 116.747 59.6634 117.619 61.5647 118.427L62.1518 117.047ZM51.5611 111.492L52.3654 110.226C50.7007 109.168 49.0993 108.051 47.5594 106.879L46.6508 108.072L45.7421 109.266C47.3491 110.489 49.02 111.655 50.7567 112.758L51.5611 111.492ZM42.0489 104.25L43.0551 103.138C41.6015 101.823 40.2099 100.453 38.8783 99.0318L37.7837 100.057L36.689 101.083C38.0761 102.563 39.5266 103.991 41.0427 105.363L42.0489 104.25ZM33.8727 95.5327L35.0453 94.5973C33.8268 93.07 32.6666 91.4943 31.5627 89.874L30.3231 90.7187L29.0835 91.5633C30.2285 93.2439 31.4333 94.8802 32.7001 96.4682L33.8727 95.5327ZM27.1328 85.658L28.4288 84.9027C27.445 83.2147 26.5144 81.4868 25.635 79.7225L24.2925 80.3917L22.95 81.0608C23.8575 82.8814 24.819 84.6669 25.8369 86.4133L27.1328 85.658ZM21.7876 74.9567L23.1679 74.3696C22.4017 72.5685 21.6833 70.7361 21.0108 68.8758L19.6002 69.3857L18.1895 69.8957C18.8801 71.806 19.6186 73.69 20.4073 75.5439L21.7876 74.9567ZM17.7118 63.7091L19.1465 63.2714C18.5741 61.3953 18.0443 59.496 17.5552 57.5769L16.1017 57.9474L14.6481 58.3178C15.1483 60.2803 15.6906 62.2245 16.2771 64.1468L17.7118 63.7091ZM14.7506 52.1188L16.2187 51.8111C15.815 49.8852 15.4493 47.9437 15.1198 45.9897L13.6407 46.2391L12.1616 46.4885C12.4974 48.4801 12.8704 50.4606 13.2825 52.4266L14.7506 52.1188ZM12.7555 40.3209L14.2428 40.1259C13.9862 38.1686 13.7635 36.2024 13.5732 34.2306L12.0802 34.3747L10.5871 34.5188C10.7806 36.5235 11.007 38.5236 11.2682 40.5159L12.7555 40.3209ZM11.6014 28.4093L13.0983 28.3129C12.971 26.3365 12.8744 24.3579 12.8066 22.3802L11.3074 22.4316L9.80832 22.483C9.87711 24.4898 9.97525 26.4984 10.1045 28.5056L11.6014 28.4093ZM11.1881 16.4476L12.6881 16.4389C12.6764 14.4519 12.6924 12.4693 12.7342 10.4943L11.2346 10.4625L9.73492 10.4307C9.6925 12.4321 9.67631 14.4417 9.68812 16.4564L11.1881 16.4476ZM11.4395 4.48064L12.9379 4.55132C12.9846 3.56113 13.0375 2.57378 13.0964 1.58967L11.599 1.5001L10.1017 1.41053C10.0421 2.40708 9.98852 3.40703 9.9412 4.40995L11.4395 4.48064Z" fill="#FF0303"/>
</svg>
