<svg width="147" height="151" viewBox="0 0 147 151" fill="none" xmlns="http://www.w3.org/2000/svg">
<path d="M147 73.5C147 32.9071 114.093 0 73.5 0C32.9071 0 0 32.9071 0 73.5V76.5924C0 117.185 32.9071 150.092 73.5 150.092C114.093 150.092 147 117.185 147 76.5924V73.5Z" fill="#F1D43C"/>
<path fill-rule="evenodd" clip-rule="evenodd" d="M63.268 32.6924C63.7521 31.8538 64.6468 31.3374 65.6151 31.3374H81.3904C82.3587 31.3374 83.2537 31.8542 83.7375 32.6931L90.8439 45.009H104.83C104.908 45.0021 104.986 44.9986 105.065 44.9986C106.033 44.9986 106.928 45.5154 107.412 46.3537L115.3 60.0155C115.784 60.8544 115.784 61.8876 115.3 62.7262L108.182 75.0471L115.288 87.3637C115.349 87.4683 115.402 87.5765 115.447 87.6864C115.765 88.4573 115.712 89.3401 115.288 90.0737L107.396 103.744C106.912 104.583 106.017 105.099 105.049 105.099H90.8455L83.7413 117.397C83.6595 117.538 83.5661 117.67 83.4627 117.793C82.9529 118.397 82.1976 118.755 81.3913 118.755H65.606C64.638 118.755 63.7433 118.239 63.2592 117.4L56.1663 105.114H42.0513C42.0118 105.116 41.972 105.117 41.9325 105.117C40.9642 105.117 40.0698 104.6 39.5856 103.762L31.7005 90.1044C31.2164 89.2662 31.2164 88.233 31.7005 87.3944L38.8179 75.0669L31.787 62.8895C31.7598 62.8478 31.7337 62.8052 31.7087 62.7616C31.2245 61.923 31.2248 60.8901 31.7087 60.0519L39.5938 46.3944C40.078 45.5558 40.9726 45.0394 41.941 45.0394H56.1569L63.1382 32.9472C63.1768 32.8607 63.22 32.7755 63.268 32.6924ZM57.7322 53.1589L52.9727 61.4028L57.7291 69.6411L62.4902 61.3997L57.7322 53.1589ZM67.1914 64.0975L60.8493 75.075L67.161 86.0143H79.8226L86.1496 75.0556L79.8229 64.0975H67.1914ZM67.9244 105.095L71.9403 105.096L76.697 113.335H67.171L62.4143 105.096L67.9244 105.095ZM60.8985 91.4444L56.1352 99.6943H46.6375L51.3976 91.4444H60.8985ZM71.9324 99.6733L76.6891 91.4344H67.1779L62.4215 99.673L67.9209 99.6746L71.9324 99.6733ZM84.5273 88.7062L89.2836 96.9445L94.0325 88.7243L89.2745 80.4832L84.5273 88.7062ZM76.6387 102.383L81.3863 94.1608L86.1443 102.402L81.3954 110.622L76.6387 102.383ZM48.2761 64.1207L53.0288 72.3531H43.5097L38.7577 64.122L45.8769 64.1201L48.2761 64.1207ZM48.2742 58.6993L45.8785 58.7L38.7493 58.6981L43.5056 50.4595H53.0316L48.2742 58.6993ZM56.1528 77.781L46.6369 77.7807L51.3955 86.0231H60.9086L56.1528 77.781ZM95.6016 58.6686L92.5913 58.6696L86.0919 58.6677L90.8483 50.4291H100.359L95.6016 58.6686ZM92.5916 64.0897L86.0781 64.0916L90.8345 72.3299H100.361L95.6038 64.0906L92.5916 64.0897ZM75.0793 50.4278L71.0672 57.3725L70.3145 58.6771H79.8116L84.5743 50.4278H75.0793ZM79.8251 36.7575L84.5849 45.0068H75.0721L70.3095 36.7575H79.8251ZM65.6236 39.4829L70.3793 47.7197L66.3726 54.6637L65.6173 55.9711L60.8606 47.7328L65.6236 39.4829ZM93.9711 99.679L98.7312 91.4288H108.247L103.484 99.679H93.9711ZM100.302 61.379L105.065 53.1291L109.823 61.3702L105.059 69.6176L100.302 61.379ZM93.9723 77.7588L98.7356 86.0086H108.249L103.488 77.7588H93.9723ZM41.94 80.4995L37.1771 88.7494L41.9334 96.988L46.698 88.7406L41.94 80.4995Z" fill="#152216"/>
</svg>
