<svg width="469" height="529" viewBox="0 0 469 529" fill="none" xmlns="http://www.w3.org/2000/svg">
<path d="M224.801 514.148L221.363 513.202L220.417 516.533L223.941 517.5C224.908 517.736 225.854 517.178 226.069 516.254C226.284 515.33 225.725 514.384 224.801 514.148Z" fill="#2C6AB1"/>
<path d="M219.951 499.955C217.953 495.077 214.321 492.24 210.647 492.304C208.154 495.7 207.316 501.244 209.314 506.229C209.916 507.755 210.732 509.044 211.657 510.183C211.657 510.183 209.851 509.539 208.025 508.894C206.198 508.271 204.415 507.562 204.415 507.562L203.125 507.068C205.145 503.651 205.532 498.73 204.028 494.217C202.373 489.103 198.87 486.094 195.196 485.836C192.445 489.081 191.285 494.475 192.918 499.675C193.412 501.222 194.143 502.576 195.002 503.758C195.002 503.758 193.219 503.006 191.457 502.254C189.695 501.437 187.954 500.642 187.954 500.642L186.708 500.062C188.964 496.774 189.673 491.939 188.448 487.298C187.137 482.054 183.785 478.874 180.153 478.358C177.209 481.41 175.684 486.76 176.995 492.025C177.403 493.594 178.026 494.991 178.821 496.216C178.821 496.216 177.102 495.356 175.383 494.475C173.685 493.551 171.988 492.627 171.988 492.627L170.784 491.961C173.234 488.845 174.265 484.01 173.341 479.325C172.288 474.125 169.301 470.493 165.605 469.891C162.446 472.792 160.641 477.971 161.608 483.279C161.909 484.891 162.446 486.331 163.134 487.62L156.515 483.644L155.355 482.892C157.998 479.948 159.352 475.178 158.75 470.407C158.406 467.764 157.525 465.529 156.258 463.853C155.011 462.155 153.443 460.93 151.637 460.501C148.328 463.165 146.158 468.237 146.759 473.652C146.931 475.307 147.383 476.768 148.027 478.057C148.027 478.057 146.394 477.026 144.847 475.865C143.278 474.748 141.709 473.609 141.709 473.609L140.592 472.814C143.407 470.042 145.062 465.379 144.718 460.63C144.353 455.322 141.86 451.346 138.271 450.293C134.768 452.764 132.297 457.664 132.598 463.058C132.684 464.691 133.028 466.195 133.565 467.57L127.527 462.778L126.452 461.919C129.439 459.319 131.373 454.806 131.438 449.949C131.502 444.556 129.031 440.666 125.679 439.226C122.09 441.397 119.189 446.253 119.146 451.626C119.146 453.237 119.404 454.763 119.855 456.138C119.855 456.138 118.394 454.87 116.954 453.603C116.223 452.979 115.514 452.313 114.998 451.798C114.483 451.303 114.139 450.959 114.139 450.959L113.15 449.992C116.309 447.607 118.566 443.202 118.867 438.41C119.038 435.767 118.587 433.403 117.663 431.533C116.825 429.599 115.493 428.138 113.817 427.343C110.035 429.32 106.919 433.854 106.467 439.291C106.338 440.924 106.424 442.514 106.811 443.889C106.811 443.889 106.467 443.546 105.952 443.051C105.457 442.514 104.791 441.827 104.146 441.117C102.836 439.699 101.503 438.302 101.503 438.302L100.558 437.292C103.867 435.122 106.403 430.889 106.983 426.161C107.692 420.896 106.016 416.491 102.728 414.75C98.8172 416.469 95.4219 420.789 94.6483 426.139C94.4119 427.751 94.4549 429.298 94.6913 430.738L89.7058 424.85L88.8247 423.797C92.2845 421.842 95.0136 417.823 96.0451 413.074C97.141 407.809 95.6368 403.425 92.4779 401.448C88.5024 402.888 84.7418 407.057 83.6889 412.279C83.3665 413.869 83.3235 415.395 83.474 416.856C83.474 416.856 82.3135 415.33 81.1316 413.783C80.5514 413.01 79.9712 412.258 79.52 411.677C79.0902 411.097 78.8323 410.689 78.8323 410.689L78.0587 409.55C81.6259 407.831 84.6988 403.941 85.9667 399.3C86.6758 396.721 86.6973 394.314 86.1816 392.273C85.9237 391.263 85.5154 390.339 84.9782 389.544C84.4839 388.705 83.8822 387.996 83.1516 387.438C79.0902 388.619 75.0932 392.531 73.589 397.731C73.1592 399.3 73.0303 400.804 73.1162 402.265C73.1162 402.265 72.0417 400.675 70.9458 399.063C69.9143 397.43 68.9473 395.775 68.9473 395.775L68.2382 394.593C71.9128 393.111 75.2221 389.436 76.7479 384.88C77.5859 382.366 77.7793 379.959 77.3496 377.918C76.9198 375.876 76.1247 374.05 74.6849 372.868C70.5375 373.792 66.3686 377.424 64.4991 382.581C63.8974 384.15 63.7255 385.633 63.704 387.094C63.704 387.094 63.4461 386.685 63.0808 386.062C62.694 385.439 62.2212 384.623 61.7914 383.741C60.8889 382.022 60.0078 380.325 60.0078 380.325L59.3632 379.1C63.1238 377.832 66.648 374.372 68.4531 369.945C69.4416 367.474 69.7639 365.11 69.4631 363.026C69.2482 360.92 68.4746 359.072 67.1422 357.783C62.9519 358.47 58.5681 361.823 56.3977 366.851C55.7315 368.377 55.3662 369.902 55.3017 371.321C55.3017 371.321 54.3777 369.623 53.6256 367.84C52.8305 366.077 52.0354 364.315 52.0354 364.315L51.4767 363.069C55.3017 362.037 59.0193 358.793 61.0823 354.473C62.2212 352.066 62.6725 349.703 62.5006 347.618C62.4146 345.491 61.7485 343.6 60.4806 342.224C56.2472 342.654 51.6916 345.77 49.2203 350.648C48.4682 352.131 47.9954 353.635 47.8665 355.053C47.8665 355.053 47.6731 354.624 47.3722 353.958C47.0714 353.291 46.7491 352.389 46.4052 351.486C45.7176 349.681 45.0299 347.876 45.0299 347.876L44.5357 346.587C48.4037 345.77 52.3147 342.762 54.6356 338.55C55.9034 336.208 56.4836 333.887 56.4407 331.781C56.3762 329.675 55.9034 327.719 54.7 326.28C50.4667 326.473 45.7176 329.331 42.967 334.08C42.1074 335.52 41.6561 336.96 41.3983 338.378C41.3983 338.378 41.2264 337.927 40.9685 337.26C40.6891 336.594 40.3883 335.67 40.1089 334.746C39.5287 332.898 38.9485 331.072 38.9485 331.072L38.5402 329.761C42.4512 329.181 46.5342 326.366 49.0699 322.283C50.4667 320.026 51.1973 317.705 51.2618 315.599C51.3048 314.547 51.1543 313.537 50.8965 312.612C50.6601 311.667 50.2948 310.807 49.736 310.034C45.5027 309.991 40.5817 312.612 37.6162 317.19C36.7566 318.565 36.1979 319.983 35.8756 321.38C35.8756 321.38 35.2954 319.532 34.7152 317.705L33.7481 313.966L33.4043 312.634C37.3368 312.247 41.5702 309.668 44.3423 305.714C47.4152 301.309 47.7376 296.603 45.5886 293.509C41.3768 293.251 36.2839 295.615 33.2539 299.998C32.3299 301.331 31.6852 302.728 31.2554 304.103C31.2554 304.103 30.7826 302.233 30.3099 300.364C30.0735 299.418 29.8371 298.494 29.6652 297.785C29.4933 297.076 29.4073 296.603 29.4073 296.603L29.1495 295.249C33.1035 295.077 37.4658 292.714 40.4528 288.867C43.7621 284.612 44.3853 279.885 42.3868 276.683C38.1319 276.231 33.039 278.337 29.7297 282.592C28.7197 283.882 28.0106 285.235 27.4948 286.611L26.055 279.025L25.7972 277.671C29.8156 277.671 34.092 275.565 37.3368 271.848C40.8825 267.743 41.7636 263.016 39.9585 259.706C35.7251 259.04 30.5463 260.931 27.0006 265.036C25.9261 266.282 25.131 267.614 24.5508 268.947L23.5408 261.275L23.3689 259.9C27.3444 260.093 31.8571 258.138 35.0805 254.613C35.983 253.625 36.6922 252.615 37.2509 251.562C37.8741 250.509 38.3038 249.456 38.5832 248.403C39.1419 246.297 39.013 244.277 38.2179 242.579C34.049 241.741 28.7627 243.418 25.0021 247.35C23.8632 248.553 22.9821 249.843 22.3374 251.154L21.7787 243.439L21.6713 242.064C25.6253 242.429 30.2454 240.667 33.6622 237.272C35.5532 235.381 36.7781 233.275 37.3368 231.212C37.6162 230.18 37.7236 229.149 37.6592 228.182C37.6592 227.193 37.4658 226.248 37.1219 225.367C33.0175 224.357 27.6023 225.818 23.7127 229.6C22.5738 230.739 21.6928 232.007 21.0481 233.296C21.0481 233.296 20.8977 231.362 20.7687 229.45C20.6828 227.516 20.6613 225.582 20.6613 225.582V224.206C24.5508 224.722 29.2569 223.175 32.8671 219.887C36.8426 216.255 38.2609 211.635 36.8211 208.089C32.6952 206.908 27.3444 208.175 23.3474 211.807C22.144 212.903 21.1985 214.128 20.4679 215.396L20.3389 207.66V206.284C24.25 206.951 28.8916 205.575 32.5877 202.416C36.7566 198.914 38.4113 194.336 37.1864 190.748C33.125 189.437 27.7097 190.511 23.5193 193.993C22.2515 195.046 21.2415 196.249 20.4679 197.474L20.7472 189.738L20.7902 188.362C24.6797 189.158 29.4503 187.954 33.2109 184.924C37.4013 181.572 38.927 177.038 37.9815 173.385C33.9845 171.923 28.5048 172.826 24.164 176.157C22.8961 177.167 21.9076 178.327 21.1125 179.53C21.1125 179.53 21.1985 177.596 21.263 175.662C21.4349 173.728 21.6068 171.816 21.6068 171.816L18.1685 171.579C18.1685 171.579 17.9966 173.513 17.8247 175.447C17.7388 177.403 17.6743 179.337 17.6743 179.337C16.9651 178.026 16.0626 176.758 14.8807 175.576C11.1631 171.687 5.91974 169.925 1.70787 170.892C-0.0757219 174.566 1.34256 179.724 5.23209 183.635C8.7563 187.181 13.4409 188.728 17.3734 188.212L17.3305 189.609L17.0511 197.388C16.342 196.12 15.4394 194.874 14.236 193.735C10.325 189.953 4.99571 188.362 0.84831 189.501C-0.655928 193.262 0.654908 198.355 4.56593 202.115C8.1761 205.532 13.0111 206.929 16.8792 206.263V207.66L17.0511 215.46C16.2775 214.214 15.289 213.01 14.0426 211.893C9.93821 208.261 4.52295 206.865 0.440017 208.132C-0.84933 211.957 0.719375 217.007 4.8238 220.639C8.54141 223.927 13.2905 225.13 17.18 224.335V225.732C17.18 225.732 17.2015 227.688 17.309 229.622C17.4594 231.556 17.5883 233.511 17.5883 233.511C16.7503 232.286 15.6973 231.126 14.3865 230.073C10.1746 226.592 4.84529 225.388 0.740865 226.828C0.418528 227.795 0.268104 228.848 0.311082 229.901C0.397039 230.975 0.654908 232.071 1.08469 233.146C1.94425 235.316 3.49147 237.422 5.64038 239.163C9.52991 242.3 14.365 243.31 18.2115 242.365L18.319 243.761L18.8777 251.54C18.0396 250.359 16.9866 249.22 15.6973 248.231C11.3995 244.922 5.91974 243.933 1.92277 245.545C1.38554 247.522 1.57894 249.735 2.4385 251.884C2.86829 252.959 3.46998 254.012 4.24359 255C5.06018 255.989 6.04868 256.913 7.16611 257.729C11.249 260.716 16.1271 261.511 19.9092 260.394L20.0811 261.769L21.0911 269.505C20.1885 268.366 19.0711 267.27 17.7173 266.325C13.226 263.209 7.70334 262.457 3.79232 264.219C2.93275 268.216 5.08167 273.073 9.57289 276.188C13.5699 279.004 18.6628 279.562 22.3374 278.294L22.5953 279.67L24.0566 287.341C23.0895 286.245 21.9076 285.214 20.4894 284.333C15.8262 281.432 10.2391 280.938 6.43548 282.872C5.8123 286.89 8.21908 291.661 12.9037 294.562C17.1156 297.183 22.0151 297.527 25.7112 296.066L25.9691 297.441C25.9691 297.441 26.0336 297.935 26.227 298.623C26.3989 299.332 26.6352 300.278 26.8716 301.223C27.3444 303.114 27.8171 305.005 27.8171 305.005C26.7857 303.952 25.5393 302.985 24.078 302.19C19.2 299.547 13.7203 299.268 9.95969 301.417C9.52991 305.478 12.259 310.12 17.0941 312.784C21.4779 315.191 26.3774 315.299 29.9875 313.644L30.3314 314.998L31.2984 318.78L32.4803 322.497C31.3843 321.509 30.095 320.606 28.5693 319.876C23.7127 317.448 18.2115 317.448 14.5584 319.79C14.4724 320.821 14.5584 321.874 14.8377 322.927C15.1386 323.959 15.6758 324.99 16.342 325.957C17.6958 327.891 19.6943 329.61 22.187 330.814C26.6997 332.984 31.6207 332.834 35.1449 330.986L35.5747 332.318C35.5747 332.318 36.1549 334.188 36.7566 336.036C37.036 336.981 37.3583 337.884 37.6377 338.571C37.8955 339.259 38.0675 339.71 38.0675 339.71C36.907 338.786 35.5532 337.97 34.0705 337.282C29.128 335.09 23.5838 335.412 20.0811 337.927C20.0596 339.99 20.6613 342.16 22.144 344.008C23.6053 345.878 25.7112 347.489 28.2899 348.542C32.9316 350.455 37.8526 350.025 41.2478 347.984L41.7421 349.294C41.7421 349.294 42.4298 351.121 43.1389 352.948C43.5042 353.85 43.8265 354.774 44.1059 355.44C44.4067 356.106 44.6002 356.558 44.6002 356.558C43.3753 355.698 42.0429 354.925 40.5172 354.344C35.4458 352.432 29.9231 353.055 26.5708 355.784C26.6352 357.847 27.4518 359.975 28.9561 361.78C30.5248 363.563 32.7167 365.046 35.3598 365.97C40.1089 367.625 44.987 366.894 48.2748 364.659L48.855 365.927C48.855 365.927 49.6501 367.711 50.4667 369.494C51.2403 371.299 52.1643 373.018 52.1643 373.018C50.875 372.245 49.4997 371.557 47.9525 371.063C42.7736 369.451 37.2938 370.397 34.1135 373.298C34.3069 375.361 35.2524 377.424 36.8426 379.143C38.5187 380.84 40.7966 382.194 43.4827 382.946C48.3393 384.322 53.1528 383.312 56.2902 380.883L56.9349 382.108C56.9349 382.108 57.8374 383.827 58.74 385.568C59.1698 386.449 59.664 387.287 60.0508 387.91C60.4376 388.534 60.674 388.963 60.674 388.963C59.3847 388.254 57.8804 387.695 56.3117 387.287C51.0684 385.998 45.6531 387.266 42.6446 390.36C42.9885 392.402 43.977 394.443 45.7821 396.033C47.5442 397.623 49.908 398.848 52.6156 399.45C57.5366 400.524 62.2642 399.235 65.2512 396.613L65.9603 397.817C65.9603 397.817 66.9488 399.514 67.9803 401.148C69.0762 402.759 70.1722 404.371 70.1722 404.371C68.8399 403.726 67.3356 403.254 65.681 402.974C60.3087 402.05 55.0439 403.597 52.2073 406.907C52.4222 407.917 52.8305 408.927 53.4107 409.851C54.0339 410.753 54.829 411.591 55.753 412.343C57.6011 413.826 60.0293 414.922 62.7584 415.352C67.7224 416.147 72.3426 414.535 75.1577 411.742L75.9313 412.902C75.9313 412.902 76.1891 413.31 76.6404 413.912C77.0917 414.492 77.6719 415.266 78.2736 416.061C79.4555 417.608 80.6374 419.177 80.6374 419.177C79.2836 418.618 77.7579 418.21 76.1032 418.06C70.5805 417.544 65.4231 419.413 62.8229 422.895C64.0478 426.849 68.4316 430.115 73.9113 430.652C78.8538 431.168 83.474 429.191 86.0741 426.225L86.9767 427.3L92.0266 433.274C90.6513 432.801 89.1256 432.479 87.4494 432.414C81.9697 432.199 76.8553 434.477 74.5345 438.087C76.0387 441.934 80.487 445.028 86.0527 445.157C91.1241 445.243 95.5508 443.03 97.9576 439.893L98.9031 440.902C98.9031 440.902 100.235 442.321 101.568 443.761C102.234 444.47 102.9 445.179 103.394 445.716C103.91 446.232 104.275 446.576 104.275 446.576C102.814 446.253 101.31 445.995 99.6553 446.017C94.2185 446.124 89.276 448.725 87.1916 452.485C88.0297 454.398 89.6199 456.031 91.6828 457.191C93.8102 458.287 96.4104 458.867 99.204 458.738C104.232 458.524 108.487 456.031 110.679 452.743L111.689 453.71C111.689 453.71 112.033 454.054 112.57 454.548C113.086 455.064 113.795 455.751 114.547 456.375C116.008 457.664 117.491 458.953 117.491 458.953C116.051 458.674 114.483 458.588 112.807 458.76C107.327 459.297 102.664 462.134 100.773 466.066C102.642 469.827 107.692 472.04 113.15 471.503C118.114 471.009 122.197 468.215 124.174 464.798L125.27 465.658L131.395 470.514C129.955 470.321 128.386 470.321 126.753 470.579C121.338 471.46 116.782 474.705 115.192 478.702C117.427 482.183 122.391 484.332 127.87 483.344C132.856 482.441 136.745 479.389 138.508 475.844L139.646 476.66C139.646 476.66 141.237 477.799 142.827 478.938C144.396 480.099 146.05 481.152 146.05 481.152C144.568 481.087 142.999 481.195 141.409 481.538C136.101 482.699 131.781 486.223 130.449 490.327C131.653 492.025 133.501 493.357 135.778 494.045C138.056 494.711 140.721 494.797 143.407 494.131C148.285 492.971 151.96 489.704 153.485 486.03L154.667 486.782L161.372 490.8C159.911 490.8 158.364 490.994 156.773 491.466C151.508 493.035 147.404 496.839 146.351 501.008C149.016 504.166 154.195 505.649 159.524 503.973C164.337 502.447 167.819 498.945 169.108 495.206L170.333 495.872C170.333 495.872 172.052 496.796 173.771 497.741C175.512 498.622 177.252 499.503 177.252 499.503C175.791 499.611 174.244 499.912 172.675 500.492C167.539 502.361 163.714 506.358 162.919 510.613C165.67 513.772 171.107 514.653 176.242 512.762C180.949 510.957 184.215 507.218 185.246 503.393L186.514 503.973L190.06 505.606C191.865 506.38 193.649 507.132 193.649 507.132C192.187 507.325 190.683 507.734 189.157 508.421C184.172 510.592 180.583 514.868 180.068 519.144C183.033 522.088 188.491 522.712 193.541 520.434C198.14 518.306 201.127 514.374 201.9 510.484L203.211 510.979C203.211 510.979 205.016 511.709 206.864 512.332L210.539 513.643C209.099 513.923 207.617 514.417 206.155 515.19C201.277 517.769 198.032 522.196 197.796 526.537C201.019 529.223 206.521 529.567 211.442 526.88C215.911 524.474 218.576 520.283 219.027 516.351L220.36 516.759L221.305 513.428L219.994 513.041C221.713 509.453 221.713 504.575 219.93 500.148L219.951 499.955Z" fill="#2C6AB1"/>
<path d="M21.6459 170.396C24.6329 168.118 26.8463 164.401 27.2331 159.888C27.7059 154.473 25.4925 149.573 21.9468 146.952C18.0143 148.714 14.9843 153.183 14.5115 158.728C14.1033 163.348 15.629 167.474 18.1862 170.138L18.0573 171.535L21.4955 171.771L21.6244 170.375L21.6459 170.396Z" fill="#2C6AB1"/>
<path d="M454.519 230.007C453.209 231.06 452.156 232.242 451.317 233.445C451.317 233.445 451.468 231.511 451.597 229.556C451.683 227.6 451.704 225.666 451.704 225.666V224.269C455.615 225.064 460.386 223.861 464.104 220.573C468.208 216.942 469.798 211.892 468.487 208.067C464.404 206.799 459.011 208.195 454.885 211.827C453.638 212.923 452.65 214.148 451.876 215.394L452.005 207.594V206.197C455.895 206.863 460.73 205.466 464.361 202.05C468.272 198.268 469.583 193.196 468.079 189.436C463.932 188.318 458.602 189.908 454.691 193.669C453.509 194.808 452.585 196.054 451.876 197.344L451.597 189.564L451.554 188.168C455.486 188.683 460.171 187.136 463.695 183.59C467.585 179.679 469.003 174.544 467.219 170.847C463.008 169.859 457.764 171.621 454.047 175.532C452.865 176.714 451.941 178.003 451.253 179.293C451.253 179.293 451.167 177.337 451.103 175.403C450.931 173.469 450.759 171.535 450.759 171.535L450.63 170.138C453.187 167.452 454.713 163.348 454.304 158.728C453.81 153.183 450.802 148.714 446.869 146.952C443.324 149.573 441.11 154.473 441.583 159.888C441.97 164.401 444.183 168.118 447.17 170.396L447.299 171.793C447.299 171.793 447.471 173.727 447.643 175.639L447.793 179.508C446.998 178.304 446.01 177.144 444.742 176.134C440.38 172.781 434.9 171.9 430.924 173.362C429.979 177.015 431.483 181.549 435.695 184.901C439.455 187.931 444.248 189.135 448.116 188.34L448.159 189.715L448.438 197.451C447.643 196.205 446.633 195.023 445.386 193.97C441.218 190.467 435.781 189.393 431.719 190.725C430.473 194.335 432.128 198.912 436.318 202.393C440.014 205.531 444.656 206.928 448.588 206.261V207.637L448.416 215.373C447.686 214.105 446.762 212.88 445.537 211.784C441.561 208.153 436.189 206.885 432.063 208.067C430.623 211.612 432.042 216.232 436.017 219.864C439.627 223.152 444.334 224.699 448.245 224.183V225.559C448.245 225.559 448.223 227.493 448.116 229.427C447.965 231.361 447.836 233.273 447.836 233.273C447.17 231.984 446.311 230.738 445.172 229.577C441.282 225.795 435.867 224.312 431.762 225.344C431.397 226.225 431.225 227.17 431.225 228.159C431.161 229.147 431.268 230.157 431.548 231.189C432.106 233.252 433.331 235.358 435.222 237.249C438.639 240.666 443.259 242.406 447.213 242.041L447.106 243.416L446.547 251.131C445.902 249.82 445.021 248.509 443.882 247.327C440.122 243.373 434.835 241.697 430.666 242.557C429.85 244.254 429.742 246.296 430.301 248.38C430.58 249.433 431.032 250.486 431.633 251.539C432.192 252.592 432.923 253.602 433.804 254.59C437.027 258.136 441.54 260.07 445.515 259.877L445.344 261.252L444.334 268.924C443.753 267.57 442.958 266.238 441.884 265.013C438.338 260.908 433.159 259.017 428.926 259.683C427.121 263.014 428.002 267.72 431.548 271.825C434.814 275.542 439.069 277.648 443.087 277.648L442.829 279.002L441.39 286.588C440.895 285.212 440.165 283.859 439.155 282.569C435.845 278.314 430.774 276.209 426.498 276.66C424.499 279.883 425.101 284.611 428.432 288.844C431.419 292.669 435.802 295.033 439.735 295.226L439.477 296.58C439.477 296.58 439.412 297.053 439.219 297.762C439.047 298.471 438.811 299.395 438.574 300.341L437.629 304.08C437.199 302.683 436.576 301.308 435.63 299.975C432.6 295.592 427.508 293.206 423.296 293.486C421.147 296.602 421.448 301.308 424.542 305.692C427.314 309.646 431.548 312.246 435.48 312.611L435.136 313.943L434.169 317.683C433.589 319.531 433.009 321.357 433.009 321.357C432.665 319.96 432.106 318.542 431.268 317.167C428.324 312.59 423.382 309.968 419.148 310.011C418.611 310.763 418.224 311.644 417.988 312.59C417.73 313.535 417.58 314.524 417.623 315.577C417.687 317.682 418.418 320.003 419.814 322.26C422.35 326.343 426.433 329.158 430.344 329.738L429.936 331.049C429.936 331.049 429.356 332.897 428.775 334.723C428.496 335.647 428.195 336.571 427.916 337.238C427.658 337.904 427.486 338.355 427.486 338.355C427.228 336.937 426.777 335.497 425.917 334.057C423.167 329.308 418.439 326.45 414.184 326.257C412.981 327.696 412.508 329.652 412.444 331.758C412.401 333.864 412.981 336.206 414.249 338.527C416.548 342.739 420.459 345.769 424.349 346.564L423.854 347.853C423.854 347.853 423.167 349.658 422.479 351.463C422.135 352.366 421.813 353.268 421.512 353.935C421.211 354.601 421.018 355.031 421.018 355.031C420.867 353.612 420.416 352.108 419.664 350.625C417.193 345.747 412.637 342.631 408.404 342.202C407.136 343.577 406.491 345.446 406.384 347.595C406.212 349.68 406.663 352.044 407.802 354.45C409.865 358.77 413.583 362.036 417.408 363.046L416.849 364.292C416.849 364.292 416.054 366.054 415.259 367.817C414.507 369.6 413.583 371.298 413.583 371.298C413.518 369.88 413.153 368.354 412.487 366.828C410.316 361.8 405.932 358.447 401.742 357.76C400.41 359.049 399.636 360.897 399.421 363.003C399.12 365.087 399.421 367.451 400.431 369.923C402.236 374.371 405.761 377.831 409.521 379.077L408.876 380.302C408.876 380.302 407.974 382.021 407.093 383.719C406.663 384.578 406.169 385.416 405.804 386.039C405.438 386.663 405.18 387.071 405.18 387.071C405.18 385.631 404.987 384.148 404.385 382.558C402.516 377.422 398.325 373.791 394.199 372.845C392.76 374.027 391.965 375.875 391.535 377.895C391.126 379.958 391.298 382.343 392.136 384.857C393.662 389.413 396.993 393.088 400.646 394.571L399.937 395.752C399.937 395.752 398.97 397.429 397.939 399.04C396.864 400.63 395.768 402.242 395.768 402.242C395.854 400.802 395.725 399.277 395.295 397.708C393.791 392.486 389.794 388.575 385.733 387.415C385.002 387.973 384.379 388.683 383.906 389.521C383.39 390.316 382.982 391.24 382.703 392.25C382.187 394.27 382.208 396.698 382.918 399.277C384.185 403.918 387.258 407.808 390.826 409.527L390.052 410.666C390.052 410.666 389.794 411.074 389.364 411.654C388.935 412.235 388.333 413.008 387.753 413.76C386.592 415.286 385.41 416.833 385.41 416.833C385.561 415.393 385.539 413.846 385.195 412.256C384.143 407.034 380.382 402.865 376.406 401.426C373.248 403.403 371.722 407.786 372.839 413.051C373.871 417.822 376.6 421.819 380.06 423.774L379.179 424.827L374.193 430.715C374.429 429.275 374.472 427.728 374.236 426.117C373.462 420.766 370.067 416.446 366.156 414.727C362.868 416.468 361.192 420.873 361.901 426.138C362.503 430.844 365.017 435.077 368.327 437.269L367.381 438.279C367.381 438.279 366.07 439.698 364.738 441.094C364.072 441.804 363.427 442.513 362.933 443.028C362.417 443.523 362.073 443.867 362.073 443.867C362.46 442.491 362.567 440.901 362.417 439.268C361.944 433.853 358.828 429.297 355.068 427.32C353.392 428.115 352.081 429.576 351.221 431.51C350.297 433.38 349.846 435.744 350.018 438.387C350.34 443.157 352.575 447.584 355.734 449.969L354.745 450.936C354.745 450.936 354.402 451.28 353.886 451.775C353.37 452.29 352.682 452.956 351.93 453.58C350.469 454.847 349.029 456.115 349.029 456.115C349.481 454.74 349.738 453.236 349.738 451.603C349.695 446.23 346.794 441.374 343.206 439.203C339.832 440.622 337.382 444.533 337.447 449.926C337.49 454.783 339.424 459.296 342.432 461.896L341.358 462.755L335.319 467.548C335.835 466.172 336.2 464.668 336.286 463.035C336.566 457.641 334.094 452.742 330.613 450.27C327.024 451.323 324.532 455.32 324.166 460.607C323.823 465.356 325.477 469.997 328.292 472.791L327.175 473.586C327.175 473.586 325.606 474.703 324.037 475.842C322.49 477.003 320.857 478.034 320.857 478.034C321.48 476.745 321.953 475.284 322.125 473.629C322.727 468.214 320.556 463.142 317.247 460.478C315.442 460.907 313.895 462.132 312.627 463.83C311.359 465.506 310.478 467.741 310.134 470.384C309.532 475.155 310.886 479.925 313.529 482.869L312.369 483.621L305.75 487.597C306.438 486.307 306.975 484.868 307.276 483.256C308.264 477.948 306.438 472.769 303.279 469.868C299.583 470.449 296.574 474.102 295.543 479.302C294.597 483.987 295.65 488.822 298.1 491.938L296.897 492.604C296.897 492.604 295.199 493.528 293.501 494.452C291.782 495.311 290.063 496.193 290.063 496.193C290.837 494.968 291.481 493.571 291.89 492.002C293.179 486.737 291.675 481.387 288.731 478.335C285.099 478.872 281.747 482.031 280.436 487.275C279.211 491.916 279.942 496.751 282.177 500.039L280.93 500.619C280.93 500.619 279.168 501.436 277.428 502.231L273.882 503.735C274.741 502.553 275.472 501.221 275.966 499.674C277.578 494.473 276.418 489.08 273.688 485.835C270.014 486.093 266.511 489.101 264.856 494.215C263.331 498.728 263.739 503.649 265.759 507.066L264.47 507.56C264.47 507.56 262.686 508.291 260.859 508.893C259.054 509.537 257.228 510.182 257.228 510.182C258.152 509.064 258.968 507.754 259.57 506.228C261.569 501.242 260.731 495.698 258.238 492.303C254.563 492.238 250.953 495.075 248.933 499.953C247.149 504.358 247.128 509.258 248.869 512.847L247.558 513.233L244.119 514.179C243.195 514.415 242.637 515.339 242.852 516.285C243.066 517.209 244.033 517.768 244.979 517.531L248.503 516.564L249.836 516.156C250.287 520.088 252.973 524.279 257.421 526.686C262.342 529.372 267.865 529.028 271.067 526.342C270.83 522.001 267.586 517.596 262.708 514.995C261.225 514.222 259.764 513.728 258.324 513.448C258.324 513.448 260.172 512.804 261.998 512.137C263.846 511.514 265.673 510.784 265.673 510.784L266.984 510.289C267.757 514.179 270.744 518.111 275.343 520.239C280.372 522.495 285.83 521.872 288.817 518.949C288.301 514.673 284.712 510.397 279.727 508.226C278.201 507.56 276.675 507.13 275.236 506.937C275.236 506.937 277.041 506.163 278.824 505.411C280.608 504.595 282.37 503.778 282.37 503.778L283.638 503.198C284.669 507.002 287.936 510.762 292.642 512.567C297.799 514.458 303.215 513.577 305.965 510.418C305.149 506.163 301.345 502.166 296.209 500.297C294.64 499.717 293.115 499.416 291.632 499.308C291.632 499.308 293.372 498.427 295.113 497.546C296.832 496.622 298.551 495.677 298.551 495.677L299.776 495.011C301.066 498.771 304.525 502.252 309.36 503.778C314.69 505.476 319.89 503.972 322.533 500.813C321.48 496.665 317.376 492.84 312.111 491.272C310.521 490.799 308.974 490.605 307.512 490.605L314.217 486.587L315.399 485.835C316.925 489.509 320.599 492.754 325.477 493.936C328.185 494.581 330.828 494.495 333.106 493.85C335.384 493.163 337.232 491.83 338.435 490.133C337.103 486.028 332.784 482.525 327.476 481.344C325.886 481 324.317 480.892 322.834 480.957C322.834 480.957 324.489 479.925 326.057 478.743C327.648 477.604 329.238 476.466 329.238 476.466L330.377 475.649C332.139 479.195 336.028 482.246 341.014 483.149C346.494 484.116 351.479 481.988 353.692 478.507C352.124 474.51 347.547 471.265 342.131 470.384C340.498 470.126 338.929 470.126 337.49 470.32L343.614 465.463L344.71 464.604C346.687 468.042 350.77 470.835 355.734 471.308C361.214 471.845 366.242 469.632 368.112 465.871C366.221 461.939 361.557 459.102 356.078 458.565C354.402 458.393 352.833 458.479 351.393 458.758C351.393 458.758 352.854 457.469 354.337 456.18C355.089 455.557 355.777 454.869 356.314 454.353C356.851 453.837 357.195 453.515 357.195 453.515L358.205 452.548C360.419 455.857 364.652 458.329 369.68 458.544C372.474 458.673 375.074 458.071 377.202 456.996C379.265 455.836 380.833 454.181 381.693 452.29C379.587 448.53 374.644 445.93 369.208 445.822C367.553 445.779 366.049 446.037 364.587 446.381C364.587 446.381 364.931 446.037 365.468 445.521C365.963 444.984 366.629 444.275 367.295 443.566C368.627 442.147 369.96 440.708 369.96 440.708L370.905 439.698C373.312 442.835 377.739 445.048 382.81 444.962C388.376 444.834 392.824 441.739 394.328 437.893C391.986 434.304 386.893 432.005 381.413 432.219C379.759 432.284 378.233 432.606 376.836 433.079L381.886 427.105L382.789 426.031C385.389 428.996 390.009 430.973 394.952 430.457C400.431 429.92 404.815 426.654 406.04 422.7C403.44 419.219 398.282 417.349 392.76 417.865C391.105 418.037 389.579 418.423 388.225 418.982C388.225 418.982 389.407 417.435 390.589 415.866C391.169 415.093 391.771 414.319 392.222 413.717C392.652 413.137 392.932 412.707 392.932 412.707L393.705 411.547C396.52 414.362 401.162 415.952 406.104 415.157C408.855 414.727 411.262 413.631 413.11 412.149C414.034 411.396 414.829 410.558 415.452 409.656C416.032 408.732 416.441 407.722 416.656 406.712C413.819 403.424 408.554 401.855 403.182 402.779C401.527 403.037 400.023 403.531 398.691 404.176L400.883 400.953C401.935 399.298 402.902 397.622 402.902 397.622L403.612 396.419C406.599 399.04 411.326 400.351 416.247 399.255C418.955 398.653 421.319 397.429 423.081 395.838C424.886 394.27 425.874 392.207 426.218 390.165C423.21 387.071 417.794 385.803 412.551 387.092C410.982 387.501 409.478 388.059 408.189 388.768C408.189 388.768 408.447 388.36 408.812 387.715C409.199 387.092 409.693 386.254 410.123 385.373C411.025 383.654 411.928 381.913 411.928 381.913L412.573 380.689C415.71 383.117 420.524 384.127 425.38 382.752C428.066 381.999 430.344 380.624 432.02 378.948C433.632 377.229 434.556 375.166 434.749 373.103C431.569 370.202 426.089 369.256 420.91 370.868C419.363 371.362 417.988 372.05 416.699 372.824C416.699 372.824 417.623 371.104 418.396 369.299C419.191 367.516 420.008 365.732 420.008 365.732L420.588 364.464C423.876 366.699 428.732 367.43 433.503 365.775C436.146 364.851 438.338 363.368 439.907 361.585C441.39 359.78 442.206 357.652 442.292 355.589C438.94 352.86 433.417 352.258 428.346 354.15C426.82 354.73 425.488 355.503 424.263 356.363C424.263 356.363 424.456 355.912 424.757 355.245C425.058 354.579 425.38 353.655 425.724 352.753C426.412 350.926 427.121 349.1 427.121 349.1L427.615 347.789C431.01 349.83 435.931 350.26 440.573 348.347C443.152 347.294 445.236 345.661 446.719 343.813C448.202 341.944 448.803 339.773 448.782 337.732C445.279 335.196 439.735 334.895 434.792 337.087C433.331 337.753 431.956 338.591 430.795 339.515C430.795 339.515 430.967 339.064 431.225 338.377C431.505 337.71 431.827 336.765 432.106 335.841C432.686 333.971 433.288 332.123 433.288 332.123L433.718 330.791C437.242 332.639 442.142 332.811 446.676 330.619C449.169 329.416 451.167 327.696 452.521 325.762C453.187 324.795 453.724 323.785 454.025 322.732C454.304 321.679 454.412 320.627 454.304 319.595C450.651 317.253 445.15 317.253 440.294 319.681C438.768 320.412 437.479 321.314 436.383 322.303C436.383 322.303 436.963 320.433 437.564 318.585L438.531 314.803L438.875 313.449C442.485 315.104 447.406 314.996 451.769 312.59C456.604 309.925 459.333 305.283 458.903 301.222C455.143 299.073 449.663 299.352 444.785 301.995C443.324 302.812 442.077 303.779 441.046 304.811L441.991 301.028C442.228 300.083 442.464 299.137 442.636 298.428C442.808 297.719 442.894 297.246 442.894 297.246L443.152 295.871C446.848 297.354 451.726 296.988 455.959 294.367C460.622 291.466 463.051 286.695 462.427 282.677C458.624 280.721 453.058 281.237 448.373 284.138C446.955 285.019 445.795 286.051 444.806 287.146L446.268 279.475L446.525 278.1C450.222 279.389 455.293 278.83 459.29 275.994C463.781 272.878 465.909 268.021 465.071 264.024C461.16 262.262 455.637 263.014 451.146 266.13C449.792 267.076 448.674 268.15 447.772 269.311L448.782 261.574L448.954 260.199C452.757 261.317 457.635 260.521 461.697 257.534C462.814 256.718 463.803 255.794 464.619 254.805C465.371 253.817 465.973 252.764 466.424 251.689C467.284 249.541 467.477 247.327 466.94 245.35C462.943 243.76 457.485 244.748 453.166 248.036C451.855 249.046 450.823 250.164 449.985 251.346L450.565 243.567L450.673 242.17C454.519 243.137 459.333 242.127 463.244 238.968C465.393 237.227 466.94 235.121 467.8 232.951C468.229 231.877 468.487 230.759 468.595 229.706C468.638 228.632 468.487 227.6 468.165 226.633C464.061 225.193 458.731 226.418 454.519 229.878V230.007Z" fill="#2C6AB1"/>
<path d="M416.734 76.7806L414.692 58.6438L396.448 57.7412C366.277 56.2585 308.794 49.4894 262.85 20.8229C259.154 18.5236 251.311 12.829 246.927 9.56265L234.098 0L221.269 9.56265C215.746 13.6671 208.676 18.76 205.324 20.8444C159.38 49.4894 101.897 56.2585 71.726 57.7412L53.4817 58.6438L51.4403 76.7806C35.7532 216.438 82.1053 380.121 123.751 422.54C170.511 470.182 223.267 483.72 229.134 485.117L234.076 486.299L239.019 485.117C244.885 483.72 297.62 470.182 344.401 422.54C386.047 380.121 432.399 216.438 416.712 76.7806H416.734ZM236.569 474.673L234.098 475.253L231.627 474.673C226.082 473.362 176.099 460.512 131.444 415.019C91.4315 374.276 46.9276 213.451 62.1419 77.984L63.1518 68.9156L72.2632 68.4643C103.465 66.9386 162.99 59.8902 210.997 29.9343C214.865 27.5276 222.408 22.0693 227.673 18.1583L234.098 13.3877L240.502 18.1798C244.391 21.0808 252.879 27.2912 257.156 29.9558C305.162 59.8902 364.687 66.9386 395.889 68.4858L405.001 68.9371L406.011 78.0055C421.225 213.473 376.721 374.297 336.708 415.041C292.054 460.533 242.07 473.384 236.526 474.694L236.569 474.673Z" fill="#2C6AB1"/>
<path d="M133.181 304.103C133.181 304.103 133.095 304.039 133.03 304.017C133.03 304.017 132.472 330.191 154.971 342.418C177.491 354.645 177.491 377.918 177.491 377.918C177.491 377.918 129.313 352.325 106.018 301.696C82.7242 251.089 81.6713 254.571 81.6713 254.571C80.253 259.255 82.8102 268.539 83.3904 273.223C88.8701 317.018 103.547 357.138 131.784 389.63C158.86 420.767 191.91 439.936 222.296 454.054C222.146 453.99 226.508 435.573 226.658 434.349C230.333 406.8 223.865 373.126 205.234 353.141C185.786 332.275 156.69 318.694 133.159 304.125L133.181 304.103Z" fill="#2C6AB1"/>
<path d="M362.04 301.662C338.746 352.269 290.567 377.884 290.567 377.884C290.567 377.884 290.567 354.612 313.088 342.384C335.609 330.157 335.028 303.983 335.028 303.983C334.985 304.005 334.942 304.048 334.878 304.069C311.347 318.66 282.251 332.241 262.803 353.086C244.172 373.071 237.683 406.744 241.379 434.293C241.551 435.497 245.913 453.913 245.741 453.999C276.127 439.88 309.177 420.734 336.253 389.574C364.511 357.083 379.167 316.963 384.647 273.168C385.227 268.483 387.784 259.2 386.366 254.515C386.366 254.515 385.313 251.034 362.019 301.641L362.04 301.662Z" fill="#2C6AB1"/>
<path d="M251.768 341.672C257.812 336.222 264.977 331.492 272.598 327.163C284.7 320.303 290.564 306.97 286.747 294.342C286.691 294.148 286.622 293.955 286.567 293.761C279.748 300.538 269.499 308.145 254.161 316.029C254.133 316.043 254.106 316.057 254.064 316.071C252.902 316.79 251.713 317.495 250.44 318.201C242.958 322.336 238.324 327.744 235.6 333.622C232.875 327.758 228.242 322.336 220.759 318.201C219.487 317.495 218.297 316.79 217.135 316.071C217.108 316.057 217.08 316.043 217.038 316.029C201.686 308.145 191.451 300.538 184.633 293.761C184.577 293.955 184.508 294.148 184.453 294.342C180.635 306.97 186.514 320.303 198.602 327.163C206.223 331.492 213.387 336.222 219.431 341.672C226.056 347.647 230.828 355.364 233.871 363.746C234.341 365.765 234.867 367.619 235.378 369.264C235.572 369.264 235.378 369.264 235.558 369.264C235.558 369.237 235.572 369.209 235.586 369.181C235.586 369.209 235.6 369.237 235.613 369.264C235.807 369.264 235.614 369.264 235.793 369.264C236.305 367.619 236.831 365.751 237.301 363.746C240.358 355.364 245.115 347.633 251.74 341.672H251.768Z" fill="#2C6AB1"/>
<path d="M256.202 296.033C260.791 284.953 255.53 272.251 244.45 267.661C233.37 263.072 220.668 268.333 216.078 279.413C211.489 290.493 216.75 303.195 227.83 307.785C238.91 312.374 251.612 307.112 256.202 296.033Z" fill="#2C6AB1"/>
<path d="M156.814 248.165L146.593 190.248L135.237 100.74H110.253V82.9833H148.761L158.156 137.08L171.164 230.202H196.044V248.165H156.814ZM110.253 248.165V109.309H127.288L128.836 185.19L130.178 248.165H110.253ZM178.804 221.633L177.152 144.617L175.913 82.9833H196.044V221.633H178.804ZM219.944 248.165V82.9833H239.973V248.165H219.944ZM251.639 173.73V155.87H278.894V173.73H251.639ZM251.639 100.844V82.9833H280.958V100.844H251.639ZM324.554 249.507C314.161 248.819 306.659 245.963 302.048 240.938C297.437 235.845 295.028 227.965 294.821 217.297C294.684 207.524 294.58 198.404 294.512 189.939C294.443 181.473 294.408 173.248 294.408 165.264C294.408 157.212 294.443 149.022 294.512 140.694C294.58 132.297 294.684 123.35 294.821 113.852C295.028 103.184 297.437 95.3375 302.048 90.3132C306.659 85.2201 314.161 82.3294 324.554 81.6412V98.7788C321.182 99.467 318.773 100.912 317.327 103.115C315.882 105.317 315.125 108.621 315.056 113.026C314.781 122.661 314.574 131.712 314.437 140.177C314.299 148.643 314.23 156.937 314.23 165.058C314.23 173.179 314.299 181.542 314.437 190.145C314.574 198.748 314.781 208.074 315.056 218.123C315.125 222.596 315.882 225.934 317.327 228.137C318.773 230.27 321.182 231.681 324.554 232.37V249.507ZM336.426 249.507V232.266C339.799 231.647 342.139 230.236 343.447 228.034C344.823 225.831 345.546 222.528 345.615 218.123C345.959 208.281 346.2 199.092 346.337 190.558C346.475 182.024 346.544 173.73 346.544 165.677C346.544 157.556 346.475 149.228 346.337 140.694C346.2 132.09 345.959 122.868 345.615 113.026C345.546 108.621 344.823 105.317 343.447 103.115C342.139 100.912 339.799 99.5015 336.426 98.882V81.6412C346.406 82.3982 353.667 85.3233 358.21 90.4164C362.752 95.5095 365.161 103.321 365.437 113.852C365.712 123.35 365.884 132.297 365.953 140.694C366.09 149.022 366.159 157.212 366.159 165.264C366.159 173.317 366.09 181.576 365.953 190.042C365.884 198.439 365.712 207.524 365.437 217.297C365.161 227.896 362.752 235.708 358.21 240.732C353.667 245.756 346.406 248.681 336.426 249.507Z" fill="#2C6AB1"/>
</svg>
